<svg width="110" height="33" viewBox="0 0 110 33" fill="none" xmlns="http://www.w3.org/2000/svg">
<path d="M11.152 1.86423C5.076 1.86423 0.147 6.42123 0.147 12.8692C0.147 19.3482 5.076 23.8742 11.152 23.8742C16.949 23.8742 21.165 19.6272 21.816 14.6362V11.8772H9.943V14.6982H18.034C17.507 18.3252 15.058 20.6812 11.152 20.6812C6.874 20.6812 3.774 17.6122 3.774 12.8692C3.774 8.12623 6.874 5.08823 11.152 5.08823C13.725 5.08823 15.771 6.17323 16.918 8.34323H21.165C19.522 4.12723 15.647 1.86423 11.152 1.86423ZM41.5766 15.1322C41.5766 9.76923 37.7326 6.32823 32.8656 6.32823C27.9986 6.32823 24.1546 9.76923 24.1546 15.1322C24.1546 20.4952 27.8436 23.9672 32.7106 23.9672C37.6086 23.9672 41.5766 20.4952 41.5766 15.1322ZM27.7506 15.1322C27.7506 11.2572 30.1376 9.39723 32.8036 9.39723C35.4386 9.39723 37.9496 11.2572 37.9496 15.1322C37.9496 19.0072 35.3456 20.8982 32.7106 20.8982C30.0446 20.8982 27.7506 19.0072 27.7506 15.1322ZM61.3451 15.1322C61.3451 9.76923 57.5011 6.32823 52.6341 6.32823C47.7671 6.32823 43.9231 9.76923 43.9231 15.1322C43.9231 20.4952 47.6121 23.9672 52.4791 23.9672C57.3771 23.9672 61.3451 20.4952 61.3451 15.1322ZM47.5191 15.1322C47.5191 11.2572 49.9061 9.39723 52.5721 9.39723C55.2071 9.39723 57.7181 11.2572 57.7181 15.1322C57.7181 19.0072 55.1141 20.8982 52.4791 20.8982C49.8131 20.8982 47.5191 19.0072 47.5191 15.1322ZM63.6607 15.0702C63.6607 20.3402 67.2257 23.9672 71.7207 23.9672C74.5107 23.9672 76.5567 22.5722 77.6417 21.1152V23.9672C77.6417 27.3772 75.5957 29.0512 72.8677 29.0512C70.4187 29.0512 68.5277 27.8422 68.0007 26.0752H64.4977C64.9317 29.8572 68.3107 32.1202 72.8677 32.1202C78.1997 32.1202 81.2067 28.6172 81.2067 23.9672V6.60723H77.6417V9.08723C76.5877 7.63023 74.5107 6.32823 71.7207 6.32823C67.2257 6.32823 63.6607 9.80023 63.6607 15.0702ZM77.6417 15.1322C77.6417 18.8212 75.1307 20.8982 72.4647 20.8982C69.8297 20.8982 67.2877 18.7592 67.2877 15.0702C67.2877 11.3812 69.8297 9.39723 72.4647 9.39723C75.1307 9.39723 77.6417 11.4742 77.6417 15.1322ZM85.8484 23.6882H89.3824V0.748232H85.8484V23.6882ZM101.214 9.30423C103.849 9.30423 105.926 10.9782 105.988 13.6132H96.5333C96.9053 10.9162 98.8273 9.30423 101.214 9.30423ZM109.212 18.6042H105.399C104.748 19.9372 103.539 20.9912 101.369 20.9912C98.7653 20.9912 96.7503 19.2862 96.5023 16.4652H109.553C109.646 15.8762 109.677 15.3182 109.677 14.7292C109.677 9.70723 106.236 6.32823 101.369 6.32823C96.3163 6.32823 92.8443 9.76923 92.8443 15.1322C92.8443 20.4952 96.4713 23.9672 101.369 23.9672C105.554 23.9672 108.251 21.5802 109.212 18.6042Z" fill="#143C3C"/>
</svg>
