<svg width="146" height="20" viewBox="0 0 146 20" fill="none" xmlns="http://www.w3.org/2000/svg">
<path d="M12.1519 11.6804L11.6016 11.6917C11.1074 13.1292 10.7031 14.3757 10.3887 15.4314C10.0742 16.4796 9.81966 17.1646 9.625 17.4866C9.43783 17.801 9.23193 18.0556 9.00732 18.2502C8.7902 18.4374 8.50944 18.5797 8.16504 18.677C7.59603 18.8342 6.82487 18.9128 5.85156 18.9128C4.87826 18.9128 3.94238 18.8043 3.04395 18.5872C2.15299 18.37 1.44173 18.1042 0.910156 17.7898C0.378581 17.4679 0.112793 17.1571 0.112793 16.8577C0.112793 16.6855 0.187663 16.5507 0.337402 16.4534C0.479655 16.3486 0.648112 16.2961 0.842773 16.2961C1.53158 16.2961 2.03695 16.1876 2.35889 15.9705C2.68831 15.7458 2.99902 15.3378 3.29102 14.7463C3.58301 14.1549 3.87126 13.4698 4.15576 12.6912C4.44775 11.9125 4.71729 11.19 4.96436 10.5237C5.21891 9.85734 5.5109 9.17603 5.84033 8.47974C6.54411 6.98234 7.41634 5.98283 8.45703 5.4812C8.95866 5.24162 9.625 5.05819 10.4561 4.93091C11.2871 4.79614 11.9347 4.72876 12.3989 4.72876C12.8631 4.72876 13.1663 4.73625 13.3086 4.75122C13.4508 4.75871 13.5931 4.78117 13.7354 4.8186C14.0273 4.89347 14.1733 5.05819 14.1733 5.31274C14.1733 5.46997 14.1434 5.61597 14.0835 5.75073C14.0236 5.8855 13.8402 6.21118 13.5332 6.72778C13.2337 7.2369 12.7171 8.52466 11.9834 10.5911C15.959 10.1269 17.9468 8.6744 17.9468 6.23364C17.9468 5.41007 17.6885 4.7924 17.1719 4.38062C16.6403 3.96883 16.1012 3.71802 15.5547 3.62817C14.7386 3.49341 13.8402 3.42603 12.8594 3.42603C11.8861 3.42603 10.8678 3.51961 9.80469 3.70679C8.74154 3.88647 7.91423 4.08862 7.32275 4.31323C6.73877 4.53035 6.21468 4.7325 5.75049 4.91968C5.29378 5.09937 5.00179 5.18921 4.87451 5.18921C4.4777 5.18921 4.2793 5.05819 4.2793 4.79614C4.2793 4.46672 4.49268 4.16724 4.91943 3.89771C6.40186 2.94686 8.09766 2.22437 10.0068 1.73022C11.916 1.23608 14.3081 0.989014 17.1831 0.989014C18.658 0.989014 19.8896 1.1425 20.8779 1.44946C21.8662 1.74894 22.6224 2.06714 23.1465 2.40405C23.6781 2.73348 24.1123 3.17147 24.4492 3.71802C24.7861 4.26457 24.9546 4.86353 24.9546 5.51489C24.9546 6.16626 24.8311 6.74276 24.584 7.24438C24.3369 7.73853 23.9963 8.16528 23.562 8.52466C23.1353 8.87655 22.5924 9.19474 21.9336 9.47925C20.7956 9.9659 19.257 10.3627 17.3179 10.6697C18.8003 10.6697 19.972 10.9242 20.833 11.4333C21.694 11.9425 22.1245 12.6612 22.1245 13.5896L21.9224 15.5886C21.9224 16.1277 22.1956 16.4347 22.7422 16.5095C22.9743 16.547 23.2064 16.5769 23.4385 16.5994C23.985 16.6443 24.2583 16.8539 24.2583 17.2283C24.2583 17.7374 23.6219 18.1829 22.3491 18.5647C21.0838 18.9465 19.695 19.1375 18.1826 19.1375C15.3301 19.1375 13.9038 18.3027 13.9038 16.6331C13.9038 16.2288 14.0273 15.6523 14.2744 14.9036C14.5215 14.1549 14.645 13.6532 14.645 13.3987C14.645 12.927 14.4504 12.5227 14.061 12.1858C13.6717 11.8489 13.0353 11.6804 12.1519 11.6804ZM37.499 2.85327C37.499 3.65438 37.0535 4.35441 36.1626 4.95337C35.2791 5.54484 34.3433 5.84058 33.355 5.84058C32.3742 5.84058 31.6105 5.64217 31.064 5.24536C30.5174 4.84106 30.2441 4.35067 30.2441 3.77417C30.2441 3.19767 30.4538 2.67358 30.873 2.2019C31.2923 1.73022 31.8351 1.35962 32.5015 1.09009C33.1753 0.820557 33.9053 0.685791 34.6914 0.685791C35.4775 0.685791 36.1401 0.895426 36.6792 1.3147C37.2257 1.72648 37.499 2.23934 37.499 2.85327ZM34.3433 16.7903C34.8524 16.7903 35.5412 16.6705 36.4097 16.4309C37.2856 16.1838 37.922 15.9667 38.3188 15.7795C38.7157 15.5849 38.9927 15.4875 39.1499 15.4875C39.4644 15.4875 39.6216 15.6448 39.6216 15.9592C39.6216 16.1015 39.5055 16.2625 39.2734 16.4421C38.5098 17.0111 37.1359 17.6026 35.1519 18.2166C33.1678 18.8305 31.3971 19.1375 29.8398 19.1375C28.874 19.1375 28.0654 18.984 27.4141 18.677C26.7627 18.37 26.437 17.9021 26.437 17.2732C26.437 16.8914 26.7627 15.9555 27.4141 14.4656C28.6419 11.643 29.2559 9.51668 29.2559 8.08667L29.2446 7.65991C29.2446 7.28556 29.6077 7.09839 30.334 7.09839L35.8818 6.97485C36.0765 6.97485 36.2225 7.03475 36.3198 7.15454C36.4172 7.26685 36.4658 7.39412 36.4658 7.53638C36.4658 8.05298 36.23 8.90649 35.7583 10.0969C35.2866 11.2799 34.8149 12.4441 34.3433 13.5896C33.8716 14.7351 33.6357 15.5549 33.6357 16.0491C33.6357 16.5432 33.8716 16.7903 34.3433 16.7903ZM40.2729 17.9358C38.8654 17.0898 38.1616 15.8057 38.1616 14.0837C38.1616 13.1853 38.3451 12.343 38.7119 11.5569C39.0863 10.7633 39.5954 10.0782 40.2393 9.50171C40.8906 8.92521 41.6468 8.43107 42.5078 8.01929C44.2298 7.18823 46.2026 6.77271 48.4263 6.77271C52.7987 6.77271 55.1608 8.1578 55.5127 10.928C56.0368 11.1002 56.5758 11.1863 57.1299 11.1863C57.6914 11.1863 58.1593 11.1451 58.5337 11.0627C58.908 10.9804 59.2599 10.8569 59.5894 10.6921C59.9263 10.5274 60.1659 10.4451 60.3081 10.4451C60.5926 10.4451 60.7349 10.5836 60.7349 10.8606C60.7349 11.1376 60.514 11.4259 60.0723 11.7253C59.2412 12.2944 58.1406 12.5789 56.7705 12.5789C56.2539 12.5789 55.8346 12.5527 55.5127 12.5002C55.2731 14.387 54.2998 15.9555 52.5928 17.2058C51.7767 17.8048 50.7734 18.2764 49.583 18.6208C48.4001 18.9653 47.1722 19.1375 45.8994 19.1375C44.6341 19.1375 43.5485 19.0364 42.6426 18.8342C41.7367 18.6396 40.9468 18.3401 40.2729 17.9358ZM44.3496 15.072C44.3496 16.4571 44.855 17.1497 45.8657 17.1497C46.5096 17.1497 47.1086 16.7978 47.6626 16.094C48.2241 15.3902 48.6584 14.518 48.9653 13.4773C49.2798 12.4366 49.437 11.3772 49.437 10.2991C49.437 9.21346 49.0589 8.67065 48.3027 8.67065C47.6439 8.67065 47.0037 8.98136 46.3823 9.60278C45.7684 10.2242 45.2743 11.0328 44.8999 12.0286C44.533 13.0168 44.3496 14.0313 44.3496 15.072ZM70.5503 16.2625L72.8188 16.0491C73.4852 16.0491 73.8184 16.2288 73.8184 16.5881C73.8184 16.94 73.6012 17.247 73.167 17.509C72.1038 18.1454 70.9658 18.5759 69.7529 18.8005C68.54 19.0251 67.3571 19.1375 66.2041 19.1375C65.0586 19.1375 64.2388 19.115 63.7446 19.0701C63.258 19.0326 62.7713 18.9503 62.2847 18.823C61.8055 18.6957 61.4124 18.5235 61.1055 18.3064C60.4391 17.8272 60.106 17.0898 60.106 16.094C60.106 14.3645 61.1504 12.1895 63.2393 9.56909C64.819 7.59253 66.1592 6.43953 67.2598 6.11011C67.8363 5.93791 68.5063 5.85181 69.27 5.85181C70.0412 5.85181 70.4268 6.1438 70.4268 6.72778C70.4268 6.92244 70.3706 7.15454 70.2583 7.42407C69.8315 8.30005 69.4572 9.337 69.1353 10.5349C68.8133 11.7253 68.6523 12.796 68.6523 13.7468C68.6523 15.4239 69.285 16.2625 70.5503 16.2625ZM59.1514 7.01978C58.7695 7.01978 58.5786 6.79891 58.5786 6.35718C58.5786 5.87052 58.7246 5.20418 59.0166 4.35815C59.5856 2.74845 60.1958 1.85376 60.8472 1.67407C61.0269 1.60669 61.5697 1.573 62.4756 1.573L70.0674 1.75269C70.4417 1.75269 71.5311 1.64038 73.3354 1.41577C75.1473 1.19116 76.0981 1.07886 76.188 1.07886C77.1538 1.07886 77.6367 1.40828 77.6367 2.06714C77.6367 2.35913 77.5319 2.82332 77.3223 3.45972C77.1201 4.08862 76.8506 4.68384 76.5137 5.24536C76.1768 5.80688 75.866 6.08765 75.5815 6.08765C75.4093 6.08765 75.02 5.94914 74.4136 5.67212C72.5793 4.83358 71.1006 4.41431 69.9775 4.41431C68.8545 4.41431 67.5555 4.52287 66.0806 4.73999C64.6056 4.95711 63.5088 5.21541 62.79 5.51489C62.0713 5.80688 61.4424 6.07642 60.9033 6.32349C59.9001 6.78768 59.3161 7.01978 59.1514 7.01978ZM87.4072 2.85327C87.4072 3.65438 86.9618 4.35441 86.0708 4.95337C85.1873 5.54484 84.2515 5.84058 83.2632 5.84058C82.2824 5.84058 81.5187 5.64217 80.9722 5.24536C80.4256 4.84106 80.1523 4.35067 80.1523 3.77417C80.1523 3.19767 80.362 2.67358 80.7812 2.2019C81.2005 1.73022 81.7433 1.35962 82.4097 1.09009C83.0835 0.820557 83.8135 0.685791 84.5996 0.685791C85.3857 0.685791 86.0483 0.895426 86.5874 1.3147C87.134 1.72648 87.4072 2.23934 87.4072 2.85327ZM84.2515 16.7903C84.7606 16.7903 85.4494 16.6705 86.3179 16.4309C87.1938 16.1838 87.8302 15.9667 88.2271 15.7795C88.6239 15.5849 88.9009 15.4875 89.0581 15.4875C89.3726 15.4875 89.5298 15.6448 89.5298 15.9592C89.5298 16.1015 89.4137 16.2625 89.1816 16.4421C88.418 17.0111 87.0441 17.6026 85.0601 18.2166C83.076 18.8305 81.3053 19.1375 79.748 19.1375C78.7822 19.1375 77.9736 18.984 77.3223 18.677C76.6709 18.37 76.3452 17.9021 76.3452 17.2732C76.3452 16.8914 76.6709 15.9555 77.3223 14.4656C78.5501 11.643 79.1641 9.51668 79.1641 8.08667L79.1528 7.65991C79.1528 7.28556 79.516 7.09839 80.2422 7.09839L85.79 6.97485C85.9847 6.97485 86.1307 7.03475 86.228 7.15454C86.3254 7.26685 86.374 7.39412 86.374 7.53638C86.374 8.05298 86.1382 8.90649 85.6665 10.0969C85.1948 11.2799 84.7231 12.4441 84.2515 13.5896C83.7798 14.7351 83.5439 15.5549 83.5439 16.0491C83.5439 16.5432 83.7798 16.7903 84.2515 16.7903ZM110.239 15.4875C110.516 15.4875 110.654 15.6186 110.654 15.8806C110.654 16.1352 110.516 16.3598 110.239 16.5544C109.969 16.7491 109.569 16.9737 109.037 17.2283C108.506 17.4753 107.843 17.7486 107.049 18.0481C106.263 18.3476 105.35 18.6021 104.309 18.8118C103.276 19.0289 102.288 19.1375 101.344 19.1375C99.1206 19.1375 98.0088 18.6283 98.0088 17.6101C98.0088 16.9513 98.3831 15.7758 99.1318 14.0837C99.888 12.3842 100.266 11.2387 100.266 10.6472C100.266 9.98088 99.7458 9.64771 98.7051 9.64771C98.2334 9.64771 97.6981 9.7076 97.0991 9.82739C96.8146 10.8306 96.3055 12.4254 95.5718 14.6116C94.8455 16.7978 94.4338 18.0406 94.3364 18.3401C94.2466 18.6396 94.0482 18.7893 93.7412 18.7893L87.9575 18.9128C87.8752 18.9128 87.7816 18.8604 87.6768 18.7556C87.5794 18.6583 87.5308 18.5422 87.5308 18.4075C87.5308 18.2652 87.688 17.7748 88.0024 16.9363C88.3244 16.0903 88.6763 15.1843 89.0581 14.2185C89.4474 13.2452 89.7993 12.1783 90.1138 11.0178C90.4357 9.84985 90.5967 8.88403 90.5967 8.12036L90.5854 7.6936C90.5854 7.31925 90.9486 7.13208 91.6748 7.13208L96.998 7.00854C97.1927 7.00854 97.3387 7.06844 97.436 7.18823C97.5334 7.30054 97.582 7.44279 97.582 7.61499C97.582 7.7797 97.5409 8.04924 97.4585 8.42358C100.094 7.323 102.258 6.77271 103.95 6.77271C104.668 6.77271 105.324 6.97111 105.915 7.36792C106.574 7.80965 106.903 8.47974 106.903 9.37817C106.903 10.2991 106.555 11.5045 105.859 12.9944C105.163 14.4843 104.814 15.4052 104.814 15.7571C104.814 16.4534 105.091 16.8015 105.646 16.8015C105.997 16.8015 106.596 16.6705 107.442 16.4084C108.296 16.1389 108.925 15.9181 109.329 15.7458C109.741 15.5736 110.044 15.4875 110.239 15.4875ZM119.639 7.25562L122.592 6.87378C123.146 6.87378 123.423 7.0909 123.423 7.52515C123.423 7.95939 123.161 8.23267 122.637 8.34497C122.113 8.44979 120.93 8.59204 119.088 8.77173C118.834 9.43807 118.452 10.3627 117.943 11.5457C116.902 13.9714 116.382 15.4277 116.382 15.9143C116.382 16.4459 116.711 16.7117 117.37 16.7117C119.496 16.7117 121.406 16.356 123.098 15.6448C123.345 15.54 123.539 15.4875 123.682 15.4875C123.959 15.4875 124.097 15.6111 124.097 15.8582C124.097 16.1052 123.917 16.3486 123.558 16.5881C122.458 17.3144 120.799 17.9208 118.583 18.4075C116.367 18.8941 114.323 19.1375 112.451 19.1375C111.388 19.1375 110.576 18.9727 110.014 18.6433C109.453 18.3064 109.172 17.8459 109.172 17.262C109.172 16.6705 109.561 15.5662 110.34 13.949C111.216 12.1371 111.845 10.5461 112.227 9.17603C111.762 9.19849 111.44 9.20972 111.261 9.20972C110.819 9.20972 110.598 9.03003 110.598 8.67065C110.598 8.40861 110.669 8.23267 110.812 8.14282C110.954 8.05298 111.1 7.98934 111.25 7.9519C111.407 7.91447 111.538 7.89201 111.643 7.88452C111.755 7.86955 111.908 7.85457 112.103 7.8396C112.298 7.82463 112.44 7.8134 112.53 7.80591C112.627 7.2369 112.676 6.70158 112.676 6.19995L112.665 5.77319C112.665 5.43628 113.091 5.20793 113.945 5.08813C114.229 5.0507 115.124 4.86353 116.629 4.52661C118.134 4.1897 119.055 4.02124 119.392 4.02124C119.931 4.02124 120.2 4.20841 120.2 4.58276C120.2 5.22664 120.013 6.11759 119.639 7.25562ZM124.749 17.9358C123.341 17.0898 122.637 15.8057 122.637 14.0837C122.637 13.1853 122.821 12.343 123.188 11.5569C123.562 10.7633 124.071 10.0782 124.715 9.50171C125.366 8.92521 126.122 8.43107 126.983 8.01929C128.705 7.18823 130.678 6.77271 132.902 6.77271C137.274 6.77271 139.636 8.1578 139.988 10.928C140.512 11.1002 141.051 11.1863 141.605 11.1863C142.167 11.1863 142.635 11.1451 143.009 11.0627C143.384 10.9804 143.736 10.8569 144.065 10.6921C144.402 10.5274 144.641 10.4451 144.784 10.4451C145.068 10.4451 145.21 10.5836 145.21 10.8606C145.21 11.1376 144.99 11.4259 144.548 11.7253C143.717 12.2944 142.616 12.5789 141.246 12.5789C140.729 12.5789 140.31 12.5527 139.988 12.5002C139.749 14.387 138.775 15.9555 137.068 17.2058C136.252 17.8048 135.249 18.2764 134.059 18.6208C132.876 18.9653 131.648 19.1375 130.375 19.1375C129.11 19.1375 128.024 19.0364 127.118 18.8342C126.212 18.6396 125.422 18.3401 124.749 17.9358ZM128.825 15.072C128.825 16.4571 129.331 17.1497 130.341 17.1497C130.985 17.1497 131.584 16.7978 132.138 16.094C132.7 15.3902 133.134 14.518 133.441 13.4773C133.755 12.4366 133.913 11.3772 133.913 10.2991C133.913 9.21346 133.535 8.67065 132.778 8.67065C132.119 8.67065 131.479 8.98136 130.858 9.60278C130.244 10.2242 129.75 11.0328 129.375 12.0286C129.009 13.0168 128.825 14.0313 128.825 15.072Z" fill="#143C3C"/>
</svg>
